<svg width="280" height="129" fill="none" xmlns="http://www.w3.org/2000/svg"><path d="M97.24 23.422 71.27 0 0 64.314l71.27 64.314 25.957-23.423-45.301-40.891L97.24 23.423Zm-6.208 81.783-19.761 17.833L6.203 64.314 71.28 5.59l19.767 17.832-45.328 40.892 45.314 40.891Zm97.24-81.782L162.316 0l-71.27 64.314 71.27 64.314 25.956-23.423-45.314-40.891 45.314-40.891Zm-6.194 81.782-19.762 17.833L97.24 64.314 162.316 5.59l19.762 17.832-45.314 40.892 45.314 40.891Zm51.917-40.891 45.31-40.891L253.349 0l-71.271 64.314 71.271 64.314 25.956-23.423-45.31-40.891Zm-45.723 0L253.349 5.59l19.748 17.832-45.296 40.892 45.31 40.891-19.762 17.833-65.077-58.724Z" fill="#6DED6C" fill-opacity=".83"/></svg>