<svg xmlns="http://www.w3.org/2000/svg" xmlns:xlink="http://www.w3.org/1999/xlink" width="500" zoomAndPan="magnify" viewBox="0 0 375 374.999991" height="500" preserveAspectRatio="xMidYMid meet" version="1.0"><defs><clipPath id="d1091af519"><path d="M 233 184 L 237 184 L 237 249.5625 L 233 249.5625 Z M 233 184 " clip-rule="nonzero"/></clipPath><clipPath id="cedada3254"><path d="M 136 223 L 140 223 L 140 249.5625 L 136 249.5625 Z M 136 223 " clip-rule="nonzero"/></clipPath><clipPath id="0dba4e0b23"><path d="M 201 205 L 205 205 L 205 249.5625 L 201 249.5625 Z M 201 205 " clip-rule="nonzero"/></clipPath><clipPath id="9f6e3d786c"><path d="M 217 193 L 221 193 L 221 249.5625 L 217 249.5625 Z M 217 193 " clip-rule="nonzero"/></clipPath><clipPath id="c4ede6f5d5"><path d="M 152 209 L 157 209 L 157 249.5625 L 152 249.5625 Z M 152 209 " clip-rule="nonzero"/></clipPath><clipPath id="88ac4b3f75"><path d="M 185 215 L 189 215 L 189 249.5625 L 185 249.5625 Z M 185 215 " clip-rule="nonzero"/></clipPath><clipPath id="d4c7052221"><path d="M 169 199 L 173 199 L 173 249.5625 L 169 249.5625 Z M 169 199 " clip-rule="nonzero"/></clipPath><clipPath id="8c8cff718b"><path d="M 112.5 126 L 262.5 126 L 262.5 224 L 112.5 224 Z M 112.5 126 " clip-rule="nonzero"/></clipPath></defs><path fill="#7ed957" d="M 51.570312 246.425781 C 41.171875 212.75 79.683594 202.273438 83.230469 186.5 C 90.203125 155.453125 74.53125 139.675781 99.472656 114.207031 C 120.597656 92.632812 146.421875 105.203125 172.042969 101.769531 C 203.050781 97.609375 235.144531 64.59375 265.277344 92.40625 C 269.234375 96.058594 272.207031 100.703125 274.453125 105.5625 C 282.859375 123.714844 282.324219 144.0625 294.085938 161.070312 C 308.023438 181.230469 329.9375 196.355469 331.902344 222.820312 C 332.273438 227.777344 331.710938 232.695312 330.371094 237.476562 C 329.214844 241.589844 327.621094 245.433594 325.238281 248.992188 C 308.601562 273.84375 277.582031 259.390625 253.957031 265.015625 C 239.234375 268.523438 228.234375 279.902344 216.617188 288.765625 C 200.929688 300.746094 182.320312 310.320312 162.082031 309.816406 C 141.101562 309.292969 120.15625 299.96875 104.0625 286.84375 C 97.582031 281.554688 92.582031 272.523438 85.144531 268.632812 C 71.40625 261.445312 54.574219 256.171875 51.570312 246.425781 Z M 51.570312 246.425781 " fill-opacity="1" fill-rule="evenodd"/><path fill="#5ce1e6" d="M 53.507812 209.636719 C 52.59375 197.863281 56.585938 189.949219 62.503906 184.054688 C 74.160156 172.429688 92.902344 168.257812 97.476562 158.613281 C 105.878906 140.878906 104.625 126.914062 109.421875 114.261719 C 112.347656 106.546875 117.59375 99.347656 128.859375 92.058594 C 138.664062 85.714844 148.019531 84.628906 157.300781 85.761719 C 171.835938 87.535156 186.203125 94.640625 201.785156 96.019531 C 223.765625 97.96875 249.429688 85.976562 270.796875 90.667969 C 279.472656 92.570312 287.417969 97.296875 294.085938 106.960938 C 295.574219 109.117188 296.773438 111.460938 297.734375 113.894531 C 298.710938 116.351562 299.441406 118.902344 299.996094 121.46875 C 302.949219 135.1875 301.351562 148.988281 302.839844 162.628906 C 303.476562 168.488281 304.671875 174.316406 307 180.09375 C 312.507812 193.746094 321.214844 206.253906 326.453125 219.757812 C 329.871094 228.582031 331.792969 237.835938 330.269531 248.144531 C 329.910156 250.542969 329.332031 252.882812 328.5625 255.160156 C 327.785156 257.4375 326.804688 259.648438 325.652344 261.785156 C 324.660156 263.628906 323.574219 265.378906 322.359375 267.027344 C 321.152344 268.671875 319.8125 270.214844 318.300781 271.652344 C 312.042969 277.589844 305.332031 279.972656 298.359375 280.390625 C 281.382812 281.417969 262.953125 271.144531 245.894531 271.355469 C 239.71875 271.429688 233.847656 272.886719 228.167969 275.019531 C 219.800781 278.152344 211.839844 282.746094 203.859375 286.410156 C 194.96875 290.492188 185.507812 293.835938 175.835938 295.546875 C 166.199219 297.253906 156.355469 297.335938 146.667969 294.898438 C 136.597656 292.363281 127.023438 287.707031 118.375 281.667969 C 109.714844 275.617188 101.988281 268.175781 95.636719 260.078125 C 92.078125 255.535156 89.609375 249.40625 86.300781 244.269531 C 84.78125 241.902344 83.085938 239.746094 81.050781 238.019531 C 73.546875 231.652344 64.648438 225.773438 58.976562 219.71875 C 55.90625 216.441406 53.785156 213.132812 53.507812 209.636719 Z M 51.585938 209.785156 C 51.886719 213.667969 54.15625 217.394531 57.574219 221.042969 C 63.289062 227.136719 72.238281 233.074219 79.800781 239.492188 C 81.691406 241.097656 83.261719 243.113281 84.679688 245.316406 C 88.019531 250.496094 90.527344 256.683594 94.117188 261.265625 C 100.585938 269.511719 108.449219 277.085938 117.269531 283.25 C 126.109375 289.421875 135.90625 294.179688 146.195312 296.769531 C 156.15625 299.273438 166.273438 299.199219 176.171875 297.449219 C 186.003906 295.707031 195.625 292.3125 204.664062 288.164062 C 212.601562 284.519531 220.519531 279.941406 228.84375 276.824219 C 234.320312 274.773438 239.96875 273.355469 245.917969 273.28125 C 263.003906 273.074219 281.46875 283.347656 298.480469 282.316406 C 305.871094 281.871094 312.996094 279.34375 319.628906 273.050781 C 321.222656 271.535156 322.640625 269.90625 323.914062 268.171875 C 325.183594 266.449219 326.3125 264.621094 327.351562 262.703125 C 328.554688 260.46875 329.574219 258.160156 330.382812 255.78125 C 331.199219 253.394531 331.800781 250.941406 332.171875 248.421875 C 333.753906 237.765625 331.789062 228.1875 328.246094 219.058594 C 323.011719 205.546875 314.296875 193.03125 308.789062 179.371094 C 306.527344 173.761719 305.371094 168.105469 304.753906 162.417969 C 303.265625 148.714844 304.847656 134.84375 301.882812 121.0625 C 301.308594 118.394531 300.542969 115.738281 299.53125 113.1875 C 298.511719 110.613281 297.246094 108.144531 295.671875 105.867188 C 288.675781 95.722656 280.324219 90.78125 271.210938 88.78125 C 249.765625 84.074219 224.011719 96.054688 201.953125 94.101562 C 183.636719 92.480469 166.996094 82.96875 149.796875 83.457031 C 142.617188 83.660156 135.339844 85.570312 127.8125 90.441406 C 116.085938 98.027344 110.660156 105.546875 107.617188 113.582031 C 102.84375 126.183594 104.109375 140.113281 95.734375 157.789062 C 91.230469 167.289062 72.625 171.230469 61.136719 182.683594 C 54.867188 188.933594 50.617188 197.316406 51.585938 209.785156 Z M 51.585938 209.785156 " fill-opacity="1" fill-rule="evenodd"/><g clip-path="url(#d1091af519)"><path fill="#000000" d="M 236.5625 186.410156 L 236.5625 247.894531 C 236.5625 248.101562 236.523438 248.300781 236.445312 248.492188 C 236.363281 248.683594 236.25 248.855469 236.105469 249 C 235.957031 249.148438 235.789062 249.261719 235.597656 249.339844 C 235.40625 249.421875 235.207031 249.460938 235 249.460938 C 234.792969 249.460938 234.59375 249.421875 234.402344 249.339844 C 234.210938 249.261719 234.042969 249.148438 233.894531 249 C 233.75 248.855469 233.636719 248.683594 233.554688 248.492188 C 233.476562 248.300781 233.4375 248.101562 233.4375 247.894531 L 233.4375 186.410156 C 233.4375 186.203125 233.476562 186.003906 233.554688 185.808594 C 233.636719 185.617188 233.75 185.449219 233.894531 185.300781 C 234.042969 185.15625 234.210938 185.042969 234.402344 184.960938 C 234.59375 184.882812 234.792969 184.84375 235 184.84375 C 235.207031 184.84375 235.40625 184.882812 235.597656 184.960938 C 235.789062 185.042969 235.957031 185.15625 236.105469 185.300781 C 236.25 185.449219 236.363281 185.617188 236.445312 185.808594 C 236.523438 186.003906 236.5625 186.203125 236.5625 186.410156 Z M 236.5625 186.410156 " fill-opacity="1" fill-rule="nonzero"/></g><g clip-path="url(#cedada3254)"><path fill="#000000" d="M 139.949219 224.753906 L 139.949219 247.894531 C 139.949219 248.101562 139.910156 248.300781 139.832031 248.492188 C 139.75 248.683594 139.640625 248.855469 139.492188 249 C 139.347656 249.148438 139.175781 249.261719 138.984375 249.339844 C 138.792969 249.421875 138.59375 249.460938 138.386719 249.460938 C 138.179688 249.460938 137.980469 249.421875 137.789062 249.339844 C 137.597656 249.261719 137.429688 249.148438 137.28125 249 C 137.136719 248.855469 137.023438 248.683594 136.945312 248.492188 C 136.863281 248.300781 136.824219 248.101562 136.824219 247.894531 L 136.824219 224.753906 C 136.824219 224.546875 136.863281 224.34375 136.945312 224.152344 C 137.023438 223.960938 137.136719 223.792969 137.28125 223.644531 C 137.429688 223.496094 137.597656 223.382812 137.789062 223.304688 C 137.980469 223.226562 138.179688 223.1875 138.386719 223.1875 C 138.59375 223.1875 138.792969 223.226562 138.984375 223.304688 C 139.175781 223.382812 139.347656 223.496094 139.492188 223.644531 C 139.640625 223.792969 139.75 223.960938 139.832031 224.152344 C 139.910156 224.34375 139.949219 224.546875 139.949219 224.753906 Z M 139.949219 224.753906 " fill-opacity="1" fill-rule="nonzero"/></g><g clip-path="url(#0dba4e0b23)"><path fill="#000000" d="M 204.355469 207.042969 L 204.355469 247.894531 C 204.355469 248.101562 204.316406 248.300781 204.238281 248.492188 C 204.15625 248.683594 204.046875 248.855469 203.898438 249 C 203.753906 249.148438 203.582031 249.261719 203.390625 249.339844 C 203.199219 249.421875 203 249.460938 202.792969 249.460938 C 202.585938 249.460938 202.386719 249.421875 202.195312 249.339844 C 202.003906 249.261719 201.835938 249.148438 201.6875 249 C 201.542969 248.855469 201.429688 248.683594 201.351562 248.492188 C 201.269531 248.300781 201.230469 248.101562 201.230469 247.894531 L 201.230469 207.042969 C 201.230469 206.835938 201.269531 206.636719 201.351562 206.441406 C 201.429688 206.25 201.542969 206.082031 201.6875 205.933594 C 201.835938 205.789062 202.003906 205.675781 202.195312 205.59375 C 202.386719 205.515625 202.585938 205.476562 202.792969 205.476562 C 203 205.476562 203.199219 205.515625 203.390625 205.59375 C 203.582031 205.675781 203.753906 205.789062 203.898438 205.933594 C 204.046875 206.082031 204.15625 206.25 204.238281 206.441406 C 204.316406 206.636719 204.355469 206.835938 204.355469 207.042969 Z M 204.355469 207.042969 " fill-opacity="1" fill-rule="nonzero"/></g><g clip-path="url(#9f6e3d786c)"><path fill="#000000" d="M 220.46875 194.734375 L 220.46875 247.894531 C 220.46875 248.101562 220.429688 248.300781 220.351562 248.492188 C 220.269531 248.683594 220.15625 248.855469 220.011719 249 C 219.863281 249.148438 219.695312 249.261719 219.503906 249.339844 C 219.3125 249.421875 219.113281 249.460938 218.90625 249.460938 C 218.699219 249.460938 218.5 249.421875 218.308594 249.339844 C 218.117188 249.261719 217.949219 249.148438 217.800781 249 C 217.65625 248.855469 217.542969 248.683594 217.460938 248.492188 C 217.382812 248.300781 217.34375 248.101562 217.34375 247.894531 L 217.34375 194.734375 C 217.34375 194.527344 217.382812 194.324219 217.460938 194.132812 C 217.542969 193.941406 217.65625 193.773438 217.800781 193.625 C 217.949219 193.480469 218.117188 193.367188 218.308594 193.285156 C 218.5 193.207031 218.699219 193.167969 218.90625 193.167969 C 219.113281 193.167969 219.3125 193.207031 219.503906 193.285156 C 219.695312 193.367188 219.863281 193.480469 220.011719 193.625 C 220.15625 193.773438 220.269531 193.941406 220.351562 194.132812 C 220.429688 194.324219 220.46875 194.527344 220.46875 194.734375 Z M 220.46875 194.734375 " fill-opacity="1" fill-rule="nonzero"/></g><g clip-path="url(#c4ede6f5d5)"><path fill="#000000" d="M 156.058594 210.648438 L 156.058594 247.894531 C 156.058594 248.101562 156.019531 248.300781 155.941406 248.492188 C 155.859375 248.683594 155.75 248.855469 155.601562 249 C 155.457031 249.148438 155.285156 249.261719 155.09375 249.339844 C 154.902344 249.421875 154.703125 249.460938 154.496094 249.460938 C 154.289062 249.460938 154.089844 249.421875 153.898438 249.339844 C 153.707031 249.261719 153.539062 249.148438 153.390625 249 C 153.246094 248.855469 153.132812 248.683594 153.054688 248.492188 C 152.972656 248.300781 152.933594 248.101562 152.933594 247.894531 L 152.933594 210.648438 C 152.933594 210.441406 152.972656 210.238281 153.054688 210.046875 C 153.132812 209.855469 153.246094 209.6875 153.390625 209.539062 C 153.539062 209.390625 153.707031 209.277344 153.898438 209.199219 C 154.089844 209.121094 154.289062 209.082031 154.496094 209.082031 C 154.703125 209.082031 154.902344 209.121094 155.09375 209.199219 C 155.285156 209.277344 155.457031 209.390625 155.601562 209.539062 C 155.75 209.6875 155.859375 209.855469 155.941406 210.046875 C 156.019531 210.238281 156.058594 210.441406 156.058594 210.648438 Z M 156.058594 210.648438 " fill-opacity="1" fill-rule="nonzero"/></g><g clip-path="url(#88ac4b3f75)"><path fill="#000000" d="M 188.261719 217.523438 L 188.261719 247.894531 C 188.261719 248.101562 188.222656 248.300781 188.144531 248.492188 C 188.0625 248.683594 187.953125 248.855469 187.804688 249 C 187.660156 249.148438 187.488281 249.261719 187.296875 249.339844 C 187.105469 249.421875 186.90625 249.460938 186.699219 249.460938 C 186.492188 249.460938 186.292969 249.421875 186.101562 249.339844 C 185.910156 249.261719 185.742188 249.148438 185.59375 249 C 185.449219 248.855469 185.335938 248.683594 185.257812 248.492188 C 185.175781 248.300781 185.136719 248.101562 185.136719 247.894531 L 185.136719 217.523438 C 185.136719 217.3125 185.175781 217.113281 185.257812 216.921875 C 185.335938 216.730469 185.449219 216.558594 185.59375 216.414062 C 185.742188 216.265625 185.910156 216.152344 186.101562 216.074219 C 186.292969 215.996094 186.492188 215.953125 186.699219 215.953125 C 186.90625 215.953125 187.105469 215.996094 187.296875 216.074219 C 187.488281 216.152344 187.660156 216.265625 187.804688 216.414062 C 187.953125 216.558594 188.0625 216.730469 188.144531 216.921875 C 188.222656 217.113281 188.261719 217.3125 188.261719 217.523438 Z M 188.261719 217.523438 " fill-opacity="1" fill-rule="nonzero"/></g><g clip-path="url(#d4c7052221)"><path fill="#000000" d="M 172.152344 201.246094 L 172.152344 247.894531 C 172.152344 248.101562 172.113281 248.300781 172.035156 248.492188 C 171.953125 248.683594 171.84375 248.855469 171.695312 249 C 171.550781 249.148438 171.378906 249.261719 171.1875 249.339844 C 170.996094 249.421875 170.796875 249.460938 170.589844 249.460938 C 170.382812 249.460938 170.183594 249.421875 169.992188 249.339844 C 169.800781 249.261719 169.632812 249.148438 169.484375 249 C 169.339844 248.855469 169.226562 248.683594 169.148438 248.492188 C 169.066406 248.300781 169.027344 248.101562 169.027344 247.894531 L 169.027344 201.246094 C 169.027344 201.035156 169.066406 200.835938 169.148438 200.644531 C 169.226562 200.453125 169.339844 200.28125 169.484375 200.136719 C 169.632812 199.988281 169.800781 199.875 169.992188 199.796875 C 170.183594 199.714844 170.382812 199.675781 170.589844 199.675781 C 170.796875 199.675781 170.996094 199.714844 171.1875 199.796875 C 171.378906 199.875 171.550781 199.988281 171.695312 200.136719 C 171.84375 200.28125 171.953125 200.453125 172.035156 200.644531 C 172.113281 200.835938 172.152344 201.035156 172.152344 201.246094 Z M 172.152344 201.246094 " fill-opacity="1" fill-rule="nonzero"/></g><g clip-path="url(#8c8cff718b)"><path fill="#000000" d="M 262.214844 137.433594 L 256.996094 170.347656 C 256.886719 171.011719 256.601562 171.59375 256.140625 172.085938 C 255.679688 172.578125 255.121094 172.902344 254.464844 173.054688 C 253.808594 173.210938 253.167969 173.167969 252.535156 172.933594 C 251.902344 172.695312 251.390625 172.304688 250.996094 171.757812 L 243.527344 161.253906 L 190.9375 199.339844 C 190.636719 199.558594 190.304688 199.714844 189.941406 199.804688 C 189.582031 199.898438 189.214844 199.925781 188.847656 199.882812 C 188.476562 199.839844 188.128906 199.730469 187.796875 199.554688 C 187.46875 199.378906 187.183594 199.152344 186.9375 198.871094 L 171.734375 180.878906 L 117.203125 222.410156 C 116.671875 222.816406 116.074219 223.023438 115.40625 223.019531 C 114.941406 223.023438 114.503906 222.917969 114.09375 222.707031 C 113.585938 222.460938 113.183594 222.09375 112.882812 221.613281 C 112.585938 221.132812 112.4375 220.609375 112.4375 220.042969 L 112.4375 200.421875 C 112.4375 199.953125 112.546875 199.507812 112.757812 199.089844 C 112.96875 198.667969 113.265625 198.320312 113.640625 198.039062 L 172.152344 154.226562 C 172.457031 154 172.789062 153.839844 173.15625 153.738281 C 173.519531 153.640625 173.890625 153.613281 174.265625 153.652344 C 174.640625 153.695312 174.996094 153.804688 175.328125 153.984375 C 175.664062 154.160156 175.953125 154.390625 176.199219 154.679688 L 191.402344 172.671875 L 229.964844 144.273438 L 221.136719 131.296875 C 220.753906 130.730469 220.566406 130.105469 220.566406 129.417969 C 220.566406 128.734375 220.757812 128.109375 221.144531 127.542969 C 221.527344 126.976562 222.035156 126.566406 222.671875 126.316406 C 223.304688 126.0625 223.957031 126.007812 224.621094 126.15625 L 259.933594 134.070312 C 260.300781 134.15625 260.640625 134.300781 260.953125 134.515625 C 261.261719 134.726562 261.523438 134.988281 261.734375 135.300781 C 261.949219 135.613281 262.09375 135.953125 262.179688 136.320312 C 262.261719 136.691406 262.273438 137.0625 262.214844 137.433594 Z M 262.214844 137.433594 " fill-opacity="1" fill-rule="nonzero"/></g></svg>