<svg xmlns="http://www.w3.org/2000/svg" viewBox="0 0 277.28 298.18"><defs><style>.cls-1{fill:#fff;}</style></defs><g id="Capa_2" data-name="Capa 2"><g id="Capa_1-2" data-name="Capa 1"><path class="cls-1" d="M46.53,88.37c-.85-12.84-1.48-25-1.43-37.1,0-13.21,6.24-22.36,17.35-28.64C79.54,13,98.29,8.32,117.3,4.53c17.11-3.4,34.36-5.41,51.85-4.15,12.87.93,23.32,5.88,29.67,17.79,6.54,12.28,11.86,25.1,17.3,38.82-6-1.28-11.09-3.18-16.49-4-32.32-5.08-63.94-3.55-94.79,8.38-19.2,7.43-37.29,17.18-55.92,25.79C48.2,87.46,47.52,87.86,46.53,88.37Z"/><path class="cls-1" d="M198.71,63.55c-4.47,1.81-9.14.76-13.68.71-6-.07-12.17,1.1-18.15-.71C177.49,63.1,188.1,63,198.71,63.55Z"/><path class="cls-1" d="M167.33,95.69l-34.79,36.94a24.15,24.15,0,0,1-8.72-18.48c0-13.68,11.68-24.78,26.1-24.78A26.8,26.8,0,0,1,167.33,95.69Z"/><path class="cls-1" d="M176,114.15c0,13.68-11.69,24.78-26.1,24.78-.76,0-1.52,0-2.26-.1a26.73,26.73,0,0,1-7.42-1.67l33.63-32.86a23.1,23.1,0,0,1,2.06,8A16.79,16.79,0,0,1,176,114.15Z"/><ellipse class="cls-1" cx="206.92" cy="113.51" rx="24.64" ry="21.34" transform="translate(37.18 277.48) rotate(-72.76)"/><path class="cls-1" d="M173.87,104.3a23.1,23.1,0,0,1,2.06,8l-28.27,26.56a26.73,26.73,0,0,1-7.42-1.67Z"/><path class="cls-1" d="M185.28,103.49l-.05.05c-1.8-5.72-3.55-11.27-5.5-17.44Z"/><path class="cls-1" d="M177.44,112.7c0,14.48-12.37,26.23-27.62,26.23a23.48,23.48,0,0,1-2.39-.11,28,28,0,0,1-7.86-1.77l35.6-34.77a24.75,24.75,0,0,1,2.18,8.43A18.81,18.81,0,0,1,177.44,112.7Z"/><path class="cls-1" d="M277.19,86.8c-.83-6.39-6.49-8.5-11.57-10.4a157.19,157.19,0,0,0-35.48-9c-10.47-1.31-20.82-3.61-31.43-3.88-4.47,1.81-9.13.76-13.68.71-6-.07-12.16,1.11-18.14-.71-8.32-.32-16.48,1.29-24.67,2.26-20.42,2.43-40.28,7.5-59.94,13.47C60.39,85.93,38.67,93,19.61,106.21c-7.4,5.14-14.36,10.85-18.23,19.31-2.87,6.25-1.17,11.78,4.36,15.73a40.2,40.2,0,0,0,14,6.15c13.87,3.46,28,4.94,42.2,5.92,2.93.2,3.78,1.05,2.94,3.91-1.33,4.56-2.43,9.18-3.9,14.84,4.42-2.61,7.94-4.65,11.43-6.75,9.46-5.66,11.55-5.36,18.76,2.85.56.63,1.72.94,1.17,2.34-2.44,2.15-3,18.53-3.1,24.78,0,1.5,0,2.42,0,2.42-.06,3.69-.15,7.37-.1,11.06a3.9,3.9,0,0,1-2.23,4Q61.54,227.28,36.29,242h0l-3.62,2.1a34,34,0,0,0-8.16,6.36,33.71,33.71,0,0,0-5.67,11.47c-.15.52-.3,1-.43,1.59H68.84a1.25,1.25,0,0,1,1.25,1.24v1.53a1.25,1.25,0,0,1-1.25,1.24H17.58a57.43,57.43,0,0,0-.69,7.48h93.4a1.25,1.25,0,0,1,1.25,1.24v1.52a1.25,1.25,0,0,1-1.25,1.25H16.87c.06,2.34.23,4.82.52,7.47H129.21a1.25,1.25,0,0,1,1.24,1.25v1.52a1.25,1.25,0,0,1-1.24,1.25H17.62l-.4,3.68h87.5a1.25,1.25,0,0,1,1.24,1.24v2.44h.24l99.69.33-.79-.87a2.11,2.11,0,0,0,.79-1c.93-3.09.26-6.17-.07-9.25,0-2.93-.11-5.85-.17-8.78.75-5.77-.76-11.42-.94-17.15-.29-9.78-4.39-17.43-13.36-22.28-12.69-6.86-26.1-12.16-39.16-18.19-3.94-1.82-4.71-4.11-4.19-7.69.7-4.76,1.52-9.5,2.22-14.27.33-2.21,1-3.53,3.72-3.38a47.46,47.46,0,0,0,18-3.05c22.56-7.79,40-21.11,47-45.25,1.42-4.9,1.37-10,8-12.57,5.68-2.19,9-8.4,10.22-14.62,1.12-5.54,2.11-10.25,9.53-8.65,1.22.27,2.84-.78,4.13-1.49,5.93-3.29,12-6.41,17.67-10.09C273,96.66,278,93.26,277.19,86.8ZM145.75,203.52c.13,3.51-1.93,3.28-4.95,3.18-14.35-.48-28.15-3.77-42-7.29-2-.5-3.35-1.12-3.74-2.76v-4.31a66.53,66.53,0,0,0,0-13l0,0v-4l.06-.06c1-2.11,1.92-1.16,3.28-.1,6.4,5,12.88,9.77,20.33,13.22s15.31,6.19,23.58,7C148.79,196.1,145.65,200.53,145.75,203.52Zm85.05-92.09c0,.71,0,1.43-.08,2.16a26.45,26.45,0,0,1-4.78,14,6,6,0,0,1-1.45,1.68,25,25,0,0,1-4.54,4.32c-7.67,7.88-6.85,18.86-12.87,27.22-13.43,18.63-31.1,28.61-53.63,30.44a62.47,62.47,0,0,1-7-.56.4.4,0,0,1-.15,0h0c-18.72-3.75-33.08-15.3-46.9-27.69a109.91,109.91,0,0,1-11.2-12c-2.13-2.58-4.21-2.81-7.32-2.33a40.28,40.28,0,0,1-26.67-5.23C44.86,138,43.92,129.54,51,121.14a31.14,31.14,0,0,1,20.1-10.9c2.52-.36,4.15.1,4.61,2.89,1,6.38,4,12.29,4.64,19.71,3.32-8.29,6.47-15.69,9.23-23.23,1.34-3.66,3-4,6.2-2.22,9.44,5.36,19.3,10,28.21,17-.13-.9-.27-1.77-.4-2.63l-.21-1.34a25.07,25.07,0,0,1-1.22-7.73c0-14.47,12.36-26.22,27.62-26.22a28.37,28.37,0,0,1,18.43,6.69l.2.18c.28.22.53.07.8.3l9.63-10.23.85,2.68c2,6.17,3.7,11.72,5.5,17.44l.05-.05A26.51,26.51,0,0,1,191,95.4l.2-.2c6.05-5.92,13-9.87,21.75-8.42,8.48,1.42,16.25,9.57,17.36,17.85a51.18,51.18,0,0,1,.47,6.62Z"/></g></g></svg>